<svg version="1.0" xmlns="http://www.w3.org/2000/svg" width="32.000000" height="32.000000" preserveAspectRatio="xMidYMid meet" style=""><rect id="backgroundrect" width="100%" height="100%" x="0" y="0" fill="none" stroke="none"/>


<g class="currentLayer" style=""><title>Layer 1</title><g transform="translate(0, 32) scale(0.1, -0.1)" fill="#000000" stroke="none" id="svg_1" class="selected">
<path d="M80.76139831542969,301.0659294128418 c-4.742840766906738,-9.226615905761719 -21.34278106689453,-17.299903869628906 -39.12843322753906,-17.299903869628906 l-30.828462600708008,0 l3.557130813598633,-106.10607147216797 c2.371420383453369,-58.819671630859375 5.9285502433776855,-114.17937469482422 8.299970626831055,-122.25265502929688 c5.9285502433776855,-17.299903869628906 143.47093200683594,-19.606557846069336 154.14231872558594,-2.3066539764404297 c4.742840766906738,6.919961452484131 -20.157072067260742,11.533269882202148 -64.02835083007812,11.533269882202148 l-72.32832336425781,0 l0,98.03279113769531 l0,98.03279113769531 l82.99971008300781,0 l82.99971008300781,0 l0,-56.51302719116211 c0,-32.293155670166016 5.9285502433776855,-61.12632751464844 11.857100486755371,-64.58631134033203 c7.114261627197266,-4.613307952880859 11.857100486755371,14.993250846862793 11.857100486755371,50.74639129638672 c0,31.139827728271484 3.557130813598633,64.58631134033203 7.114261627197266,74.96625518798828 c5.9285502433776855,13.839922904968262 -1.1857101917266846,18.453231811523438 -28.457046508789062,18.453231811523438 c-20.157072067260742,0 -37.942726135253906,6.919961452484131 -42.68556213378906,17.299903869628906 c-3.557130813598633,10.379941940307617 -21.34278106689453,17.299903869628906 -42.68556213378906,17.299903869628906 c-21.34278106689453,0 -39.12843322753906,-6.919961452484131 -42.68556213378906,-17.299903869628906 zm58.09980010986328,-13.839922904968262 c-8.299970626831055,-2.3066539764404297 -22.528491973876953,-2.3066539764404297 -29.64275360107422,0 c-8.299970626831055,3.4599807262420654 -2.371420383453369,5.766634941101074 14.228523254394531,5.766634941101074 c16.59994125366211,0 22.528491973876953,-2.3066539764404297 15.414231300354004,-5.766634941101074 z" id="svg_2"/>
<path d="M64.16148376464844,162.66775131225586 c0,-34.59980773925781 5.9285502433776855,-63.432979583740234 11.857100486755371,-63.432979583740234 c7.114261627197266,0 11.857100486755371,28.833173751831055 11.857100486755371,63.432979583740234 c0,34.59980773925781 -4.742840766906738,63.432979583740234 -11.857100486755371,63.432979583740234 c-5.9285502433776855,0 -11.857100486755371,-28.833173751831055 -11.857100486755371,-63.432979583740234 z" id="svg_3"/>
<path d="M111.58985137939453,162.66775131225586 c0,-34.59980773925781 5.9285502433776855,-63.432979583740234 11.857100486755371,-63.432979583740234 c7.114261627197266,0 11.857100486755371,28.833173751831055 11.857100486755371,63.432979583740234 c0,34.59980773925781 -4.742840766906738,63.432979583740234 -11.857100486755371,63.432979583740234 c-5.9285502433776855,0 -11.857100486755371,-28.833173751831055 -11.857100486755371,-63.432979583740234 z" id="svg_4"/>
<path d="M159.01828002929688,184.58097457885742 c0,-24.219865798950195 4.742840766906738,-38.05978775024414 11.857100486755371,-33.44648742675781 c7.114261627197266,3.4599807262420654 11.857100486755371,21.9132080078125 11.857100486755371,41.51976776123047 c0,18.453231811523438 -4.742840766906738,33.44648742675781 -11.857100486755371,33.44648742675781 c-5.9285502433776855,0 -11.857100486755371,-18.453231811523438 -11.857100486755371,-41.51976776123047 z" id="svg_5"/>
<path d="M179.1753387451172,125.76128768920898 c-4.742840766906738,-3.4599807262420654 3.557130813598633,-19.606557846069336 17.7856502532959,-34.59980773925781 l24.899913787841797,-26.526517868041992 l-24.899913787841797,-26.526517868041992 c-34.38559341430664,-35.75313186645508 -18.971363067626953,-50.74639129638672 17.7856502532959,-17.299903869628906 l27.271333694458008,24.219865798950195 l27.271333694458008,-24.219865798950195 c36.757015228271484,-33.44648742675781 52.1712532043457,-18.453231811523438 17.7856502532959,17.299903869628906 l-24.899913787841797,26.526517868041992 l24.899913787841797,26.526517868041992 c34.38559341430664,35.75313186645508 18.971363067626953,50.74639129638672 -17.7856502532959,17.299903869628906 l-27.271333694458008,-24.219865798950195 l-27.271333694458008,24.219865798950195 c-15.414231300354004,13.839922904968262 -32.01417541503906,21.9132080078125 -35.5713005065918,17.299903869628906 z" id="svg_6"/>
</g></g></svg>