<svg xmlns="http://www.w3.org/2000/svg" width="24.693877577781677" height="24" style=""><rect id="backgroundrect" width="100%" height="100%" x="0" y="0" fill="none" stroke="none" style="" class=""/>    <g class="currentLayer" style=""><title>Layer 1</title><path d="M9.31146339327097,0.2448972761631012 L7.989548720419407,1.4306117296218872 L1.3799742832779884,1.4306117296218872 L1.3799742832779884,3.8020405769348145 L22.53061107546091,3.8020405769348145 L22.53061107546091,1.4306117296218872 L15.921037711203098,1.4306117296218872 L14.599123038351536,0.2448972761631012 L9.31146339327097,0.2448972761631012 zM2.7018890753388405,6.173468112945557 L2.7018890753388405,23.959182739257812 L21.208700217306614,23.959182739257812 L21.208700217306614,6.173468112945557 L2.7018890753388405,6.173468112945557 zM8.53173927217722,9.730609893798828 L11.955292738974094,12.80142593383789 L15.378847159445286,9.730609893798828 L17.242950476706028,11.402652740478516 L13.819398917257786,14.473467826843262 L17.242950476706028,17.544281005859375 L15.378847159445286,19.216323852539062 L11.955292738974094,16.145509719848633 L8.53173927217722,19.216323852539062 L6.667633570730686,17.544281005859375 L10.09118751436472,14.473467826843262 L6.667633570730686,11.402652740478516 L8.53173927217722,9.730609893798828 z" id="svg_1" class=""/></g></svg>