<svg xmlns="http://www.w3.org/2000/svg" viewBox="0 0 520 520"><path fill="#9bc9ff" d="M395,240c52.46,0,95,42.53,95,95s-42.54,95-95,95c-52.47,0-95-42.53-95-95S342.53,240,395,240z"></path><polygon fill="#fff" points="395,265.38 437.641,310 415,310 375,310 352.351,310"></polygon><rect width="40" height="95" x="375" y="310" fill="#fff"></rect><path fill="#9bc9ff" d="M455,55c13.8,0,25,11.19,25,25s-11.2,25-25,25c-13.81,0-25-11.19-25-25S441.19,55,455,55z"></path><path fill="#9bc9ff" d="M45,390c8.28,0,15,6.72,15,15s-6.72,15-15,15c-8.29,0-15-6.72-15-15S36.71,390,45,390z"></path><polygon fill="#fff" points="336,430 336,460 85,460 85,100 115,100 115,400 115,430"></polygon><path fill="#9bc9ff" d="M336,50c18.55,18.55,40.45,41.45,59,60h-59V50z"></path><path fill="#fff" d="M115,50h221v60h59v130c-52.47,0-95,42.53-95,95s42.53,95,95,95c-5.759,0-271.618,0-280,0 C115,408.324,115,63.628,115,50z"></path><circle cx="467.5" cy="432.5" r="7.5" fill="#1e81ce"></circle><circle cx="462.5" cy="142.5" r="7.5" fill="#1e81ce"></circle><circle cx="392.5" cy="467.5" r="7.5" fill="#1e81ce"></circle><circle cx="67.5" cy="62.5" r="7.5" fill="#1e81ce"></circle><circle cx="62.5" cy="307.5" r="7.5" fill="#1e81ce"></circle><circle cx="42.5" cy="232.5" r="7.5" fill="#1e81ce"></circle><path fill="#1e81ce" d="M437.641,315H415c-2.761,0-5-2.238-5-5s2.239-5,5-5h10.946L395,272.616L364.046,305H375 c2.762,0,5,2.238,5,5s-2.238,5-5,5h-22.649c-2.002,0-3.811-1.194-4.598-3.034c-0.787-1.841-0.4-3.974,0.983-5.421l42.649-44.62 c0.943-0.986,2.249-1.545,3.614-1.545h0.001c1.365,0,2.671,0.559,3.614,1.546l42.64,44.62c1.383,1.447,1.77,3.579,0.982,5.42 C441.451,313.807,439.642,315,437.641,315z"></path><path fill="#1e81ce" d="M415,410h-40c-2.761,0-5-2.238-5-5v-95c0-2.762,2.239-5,5-5h40c2.762,0,5,2.238,5,5v95 C420,407.762,417.762,410,415,410z M380,400h30v-85h-30V400z"></path><path fill="#1e81ce" d="M395,115h-59c-2.761,0-5-2.239-5-5V50c0-2.761,2.239-5,5-5c2.762,0,5,2.239,5,5v55h54 c2.762,0,5,2.239,5,5S397.762,115,395,115z"></path><path fill="#1e81ce" d="M336,465H85c-2.761,0-5-2.238-5-5V100c0-2.761,2.239-5,5-5h30c2.762,0,5,2.239,5,5s-2.238,5-5,5H90 v350h241v-25c0-2.762,2.239-5,5-5c2.762,0,5,2.238,5,5v30C341,462.762,338.762,465,336,465z"></path><path fill="#1e81ce" d="M210,125h-60c-2.761,0-5-2.239-5-5s2.239-5,5-5h60c2.762,0,5,2.239,5,5S212.762,125,210,125z"></path><path fill="#1e81ce" d="M295,150H150c-2.761,0-5-2.239-5-5s2.239-5,5-5h145c2.762,0,5,2.239,5,5S297.762,150,295,150z"></path><path fill="#1e81ce" d="M295,175H150c-2.761,0-5-2.239-5-5s2.239-5,5-5h145c2.762,0,5,2.239,5,5S297.762,175,295,175z"></path><path fill="#1e81ce" d="M295,200H150c-2.761,0-5-2.239-5-5s2.239-5,5-5h145c2.762,0,5,2.239,5,5S297.762,200,295,200z"></path><path fill="#1e81ce" d="M295,225H150c-2.761,0-5-2.239-5-5s2.239-5,5-5h145c2.762,0,5,2.239,5,5S297.762,225,295,225z"></path><path fill="#1e81ce" d="M295,250H150c-2.761,0-5-2.239-5-5s2.239-5,5-5h145c2.762,0,5,2.239,5,5S297.762,250,295,250z"></path><path fill="#1e81ce" d="M225,275h-75c-2.761,0-5-2.238-5-5s2.239-5,5-5h75c2.762,0,5,2.238,5,5S227.762,275,225,275z"></path><path fill="#1e81ce" d="M240,300h-90c-2.761,0-5-2.238-5-5s2.239-5,5-5h90c2.762,0,5,2.238,5,5S242.762,300,240,300z"></path><path fill="#1e81ce" d="M260,405H115c-2.761,0-5-2.238-5-5s2.239-5,5-5h145c2.762,0,5,2.238,5,5S262.762,405,260,405z"></path><path fill="#1e81ce" d="M455,110c-16.542,0-30-13.458-30-30s13.458-30,30-30s30,13.458,30,30S471.542,110,455,110z M455,60 c-11.027,0-20,8.972-20,20s8.973,20,20,20c11.028,0,20-8.972,20-20S466.028,60,455,60z"></path><path fill="#1e81ce" d="M45,425c-11.027,0-20-8.972-20-20s8.973-20,20-20c11.028,0,20,8.972,20,20S56.028,425,45,425z M45,395c-5.514,0-10,4.486-10,10s4.486,10,10,10c5.515,0,10-4.486,10-10S50.515,395,45,395z"></path><path fill="#1e81ce" d="M395,435H115c-2.761,0-5-2.238-5-5V50c0-2.761,2.239-5,5-5h221c1.326,0,2.598,0.527,3.536,1.464 c9.294,9.294,19.583,19.838,29.534,30.035c9.936,10.181,20.209,20.709,29.466,29.965c0.938,0.938,1.464,2.209,1.464,3.536v130 c0,2.761-2.238,5-5,5c-2.761,0-5-2.239-5-5V112.069c-8.909-8.933-18.649-18.915-28.087-28.585 C352.504,73.842,342.79,63.888,333.927,55H120v370h275c2.762,0,5,2.238,5,5S397.762,435,395,435z"></path><path fill="#1e81ce" d="M395,435c-55.14,0-100-44.859-100-100s44.86-100,100-100c55.141,0,100,44.859,100,100 S450.141,435,395,435z M395,245c-49.626,0-90,40.374-90,90s40.374,90,90,90s90-40.374,90-90S444.626,245,395,245z"></path></svg>