<svg xmlns:rdf="http://www.w3.org/1999/02/22-rdf-syntax-ns#" xmlns="http://www.w3.org/2000/svg" xmlns:cc="http://web.resource.org/cc/" xmlns:xlink="http://www.w3.org/1999/xlink" xmlns:dc="http://purl.org/dc/elements/1.1/" xmlns:svg="http://www.w3.org/2000/svg" xmlns:inkscape="http://www.inkscape.org/namespaces/inkscape" xmlns:sodipodi="http://sodipodi.sourceforge.net/DTD/sodipodi-0.dtd" xmlns:ns1="http://sozi.baierouge.fr" enable-background="new 0 0 100 100" xml:space="preserve" version="1.1" width="100" height="100" style=""><rect id="backgroundrect" width="100%" height="100%" x="0" y="0" fill="none" stroke="none"/>


<metadata><rdf:RDF><cc:Work><dc:format>image/svg+xml</dc:format><dc:type rdf:resource="http://purl.org/dc/dcmitype/StillImage"/><cc:license rdf:resource="http://creativecommons.org/licenses/publicdomain/"/><dc:publisher><cc:Agent rdf:about="http://openclipart.org/"><dc:title>Openclipart</dc:title></cc:Agent></dc:publisher><dc:title>Download</dc:title><dc:date>2011-12-27T11:25:39</dc:date><dc:description/><dc:source>https://openclipart.org/detail/166618/download-by-mrtossum</dc:source><dc:creator><cc:Agent><dc:title>MrTossum</dc:title></cc:Agent></dc:creator><dc:subject><rdf:Bag><rdf:li>download</rdf:li><rdf:li>down</rdf:li><rdf:li>icon</rdf:li><rdf:li>arrow</rdf:li><rdf:li>network</rdf:li><rdf:li>Internet</rdf:li></rdf:Bag></dc:subject></cc:Work><cc:License rdf:about="http://creativecommons.org/licenses/publicdomain/"><cc:permits rdf:resource="http://creativecommons.org/ns#Reproduction"/><cc:permits rdf:resource="http://creativecommons.org/ns#Distribution"/><cc:permits rdf:resource="http://creativecommons.org/ns#DerivativeWorks"/></cc:License></rdf:RDF></metadata><g class="currentLayer" style=""><title>Layer 1</title><path d="m36.69445323944092,58.41588592529297 c4.206785202026367,6.976210117340088 8.414278984069824,13.952420234680176 12.621063232421875,20.928630828857422 c0.3101450800895691,0.5121229887008667 0.6733972430229187,0.6987937092781067 1.0246118307113647,0.6655644774436951 c0.35121452808380127,0.03322935849428177 0.7158828973770142,-0.1524641066789627 1.0246118307113647,-0.6655644774436951 c4.206785202026367,-6.976210117340088 8.414278984069824,-13.952420234680176 12.621063232421875,-20.928630828857422 c0.7789031863212585,-1.2891035079956055 0.3264312446117401,-3.4148049354553223 -1.0239036083221436,-3.4148049354553223 h-5.295834064483643 v-31.651941299438477 c0,-1.0907049179077148 -0.6592353582382202,-2.0006027221679688 -1.4494680166244507,-2.0006027221679688 h-11.752941131591797 c-0.7902327179908752,0 -1.4494680166244507,0.9098979830741882 -1.4494680166244507,2.0006027221679688 v31.651941299438477 h-5.295834064483643 c-1.350334882736206,0 -1.8028069734573364,2.125701427459717 -1.0239036083221436,3.4148049354553223 z" id="svg_1" class="" transform="rotate(179.962, 50.3401, 50.6812)"/><path d="m50.119049072265625,94.82992454209398 c24.86199378967285,0 45.017005920410156,-20.076781417825487 45.017005920410156,-44.842261770488676 s-20.155012130737305,-44.842261770488676 -45.017005920410156,-44.842261770488676 s-45.017005920410156,20.076781417825487 -45.017005920410156,44.842261770488676 s20.155012130737305,44.842261770488676 45.017005920410156,44.842261770488676 zm0,-82.50979188592737 c20.884288787841797,0 37.81428909301758,16.86428224865267 37.81428909301758,37.66750698159058 c0,20.802328296323367 -16.929996490478516,37.66750698159058 -37.81428909301758,37.66750698159058 c-20.88338851928711,0 -37.81428909301758,-16.86517868526721 -37.81428909301758,-37.66750698159058 c0,-20.803226660758583 16.930896759033203,-37.66750698159058 37.81428909301758,-37.66750698159058 z" id="svg_2" class=""/></g></svg>